<svg xmlns="http://www.w3.org/2000/svg" version="1" viewBox="0 0 512 512"><defs><linearGradient id="b" x1="106.02" x2="532.94" y1="267.81" y2="267.81" gradientUnits="userSpaceOnUse"><stop offset="0" stop-color="#fd3535"/><stop offset="1" stop-color="#fd7d00"/></linearGradient><clipPath id="a"><path d="M0 0h384v384H0z"/></clipPath></defs><path fill="url(#b)" d="M256 43.076v425.87a20.353 20.353 0 0 0 3.713-.372l204.7-39.161c9.631-1.838 16.591-10.195 16.59-19.92v-306.66c.004-9.711-6.933-18.063-16.546-19.92l-204.7-39.49a20.634 20.634 0 0 0-3.757-.35z"/><path fill="none" stroke="#000" stroke-width="24.107" d="M372.52 109.3v55.827l-68.143 68.727h68.143v56.25h63.482l-63.482 76.762v47.792" opacity=".3"/><path fill="none" stroke="#fdfdfd" stroke-width="24.107" d="M372.52 99.304v55.827l-68.143 68.727h68.143v56.25h63.482L372.52 356.87v47.792"/><g stroke-width="8.036"><path fill="#272a34" d="M255.67 43.054a20.457 20.283 0 0 0-3.735.372l-204.39 39.49A20.457 20.283 0 0 0 31 102.836v306.66a20.457 20.283 0 0 0 16.589 19.92l204.37 39.161a20.457 20.283 0 0 0 4.043.372V43.08a20.457 20.283 0 0 0-.33-.022z"/><path d="M31 399.49v10a20.457 20.283 0 0 0 16.59 19.918l204.36 39.158a20.457 20.283 0 0 0 4.049.375 20.174 20.174 0 0 0 3.703-.375l204.71-39.16c9.63-1.838 16.59-10.192 16.59-19.916v-10c.001 9.725-6.96 18.078-16.59 19.916l-204.71 39.16a20.177 20.177 0 0 1-3.703.377 20.457 20.283 0 0 1-4.049-.377l-204.36-39.16A20.457 20.283 0 0 1 31 399.49z" opacity=".3"/><path fill="#fff" d="M255.67 43.053a20.457 20.283 0 0 0-3.734.377L47.546 82.918a20.457 20.283 0 0 0-16.543 19.916v10a20.457 20.283 0 0 1 16.543-19.916l204.39-39.488a20.457 20.283 0 0 1 3.734-.377 20.457 20.283 0 0 1 .33.016c1.26.001 2.513.13 3.752.361l204.71 39.488c9.613 1.857 16.548 10.205 16.543 19.916v-10c.005-9.71-6.93-18.059-16.543-19.916L259.752 43.43a20.58 20.58 0 0 0-3.752-.361 20.457 20.283 0 0 0-.33-.016z" opacity=".2"/><path d="M255.67 43.054a20.457 20.283 0 0 0-3.735.372l-204.39 39.49A20.457 20.283 0 0 0 31 102.836v306.66a20.457 20.283 0 0 0 16.589 19.92l204.37 39.161a20.457 20.283 0 0 0 4.043.372V43.08a20.457 20.283 0 0 0-.33-.022z" opacity=".3"/><path d="M31 399.53v9.963a20.457 20.283 0 0 0 16.59 19.918l204.36 39.158a20.457 20.283 0 0 0 4.049.375H256v-9.998h-.002a20.457 20.283 0 0 1-4.049-.377l-204.36-39.16A20.457 20.283 0 0 1 31 399.53z" opacity=".5"/></g></svg>